<?xml version="1.0" encoding="UTF-8" standalone="no"?><!DOCTYPE svg PUBLIC "-//W3C//DTD SVG 1.1//EN" "http://www.w3.org/Graphics/SVG/1.1/DTD/svg11.dtd"><svg width="100%" height="100%" viewBox="0 0 288 288" version="1.1" xmlns="http://www.w3.org/2000/svg" xmlns:xlink="http://www.w3.org/1999/xlink" xml:space="preserve" xmlns:serif="http://www.serif.com/" style="fill-rule:evenodd;clip-rule:evenodd;stroke-linejoin:round;stroke-miterlimit:2;"><g id="SvgjsG1008"><g><path d="M100.2,144l43.8,43.8l43.8,-43.8l-12.6,-12.6l-22.2,22.2l-0,-54.6l-18,0l-0,54.6l-22.2,-22.2l-12.6,12.6Zm-76.2,0c-0,-16.4 3.15,-31.9 9.45,-46.5c6.3,-14.6 14.9,-27.35 25.8,-38.25c10.9,-10.9 23.65,-19.5 38.25,-25.8c14.6,-6.3 30.1,-9.45 46.5,-9.45c16.6,0 32.2,3.15 46.8,9.45c14.6,6.3 27.3,14.9 38.1,25.8c10.8,10.9 19.35,23.65 25.65,38.25c6.3,14.6 9.45,30.1 9.45,46.5c-0,16.6 -3.15,32.2 -9.45,46.8c-6.3,14.6 -14.85,27.3 -25.65,38.1c-10.8,10.8 -23.5,19.35 -38.1,25.65c-14.6,6.3 -30.2,9.45 -46.8,9.45c-16.4,0 -31.9,-3.15 -46.5,-9.45c-14.6,-6.3 -27.35,-14.85 -38.25,-25.65c-10.9,-10.8 -19.5,-23.5 -25.8,-38.1c-6.3,-14.6 -9.45,-30.2 -9.45,-46.8Zm18,0c-0,28.4 9.95,52.5 29.85,72.3c19.9,19.8 43.95,29.7 72.15,29.7c28.4,0 52.5,-9.9 72.3,-29.7c19.8,-19.8 29.7,-43.9 29.7,-72.3c-0,-28.2 -9.9,-52.25 -29.7,-72.15c-19.8,-19.9 -43.9,-29.85 -72.3,-29.85c-28.2,0 -52.25,9.95 -72.15,29.85c-19.9,19.9 -29.85,43.95 -29.85,72.15Z" style="fill:#45d0f2;fill-rule:nonzero;"/></g></g></svg>