<svg id="SvgjsSvg1011" width="288" height="288" xmlns="http://www.w3.org/2000/svg" version="1.1" xmlns:xlink="http://www.w3.org/1999/xlink" xmlns:svgjs="http://svgjs.com/svgjs"><defs id="SvgjsDefs1012"></defs><g id="SvgjsG1013"><svg xmlns="http://www.w3.org/2000/svg" viewBox="0 96 960 960" width="288" height="288"><path d="m421 758 283-283-46-45-237 237-120-120-45 45 165 166Zm59 218q-82 0-155-31.5t-127.5-86Q143 804 111.5 731T80 576q0-83 31.5-156t86-127Q252 239 325 207.5T480 176q83 0 156 31.5T763 293q54 54 85.5 127T880 576q0 82-31.5 155T763 858.5q-54 54.5-127 86T480 976Zm0-60q142 0 241-99.5T820 576q0-142-99-241t-241-99q-141 0-240.5 99T140 576q0 141 99.5 240.5T480 916Zm0-340Z" fill="#45d0f2" class="color000 svgShape"></path></svg></g></svg>