<svg id="SvgjsSvg1041" width="288" height="288" xmlns="http://www.w3.org/2000/svg" version="1.1" xmlns:xlink="http://www.w3.org/1999/xlink" xmlns:svgjs="http://svgjs.com/svgjs"><defs id="SvgjsDefs1042"></defs><g id="SvgjsG1043"><svg xmlns="http://www.w3.org/2000/svg" viewBox="0 96 960 960" width="288" height="288"><path d="M140 856q-24 0-42-18.5T80 796V356q0-24 18-42t42-18h680q24 0 42 18t18 42v440q0 23-18 41.5T820 856H140Zm160-125h360v-60H300v60Zm-97-125h60v-60h-60v60Zm124 0h60v-60h-60v60Zm123 0h60v-60h-60v60Zm124 0h60v-60h-60v60Zm123 0h60v-60h-60v60ZM203 481h60v-60h-60v60Zm124 0h60v-60h-60v60Zm123 0h60v-60h-60v60Zm124 0h60v-60h-60v60Zm123 0h60v-60h-60v60Z" fill="#2527b4" class="color000 svgShape"></path></svg></g></svg>