<svg id="SvgjsSvg1135" width="288" height="288" xmlns="http://www.w3.org/2000/svg" version="1.1" xmlns:xlink="http://www.w3.org/1999/xlink" xmlns:svgjs="http://svgjs.com/svgjs"><defs id="SvgjsDefs1136"></defs><g id="SvgjsG1137"><svg xmlns="http://www.w3.org/2000/svg" xmlns:svgjs="http://svgjs.com/svgjs" xmlns:xlink="http://www.w3.org/1999/xlink" viewBox="0 0 288 288" width="288" height="288"><svg xmlns="http://www.w3.org/2000/svg" viewBox="0 96 960 960" width="288" height="288"><path fill="#78e4ff" d="M727 976q-47.5 0-80.75-33.346Q613 909.307 613 861.669q0-6.669 1.5-16.312T619 828L316 652q-15 17-37 27.5T234 690q-47.5 0-80.75-33.25T120 576q0-47.5 33.25-80.75T234 462q23 0 44 9t38 26l303-174q-3-7.071-4.5-15.911Q613 298.25 613 290q0-47.5 33.25-80.75T727 176q47.5 0 80.75 33.25T841 290q0 47.5-33.25 80.75T727 404q-23.354 0-44.677-7.5T646 372L343 540q2 8 3.5 18.5t1.5 17.741q0 7.242-1.5 15Q345 599 343 607l303 172q15-14 35-22.5t46-8.5q47.5 0 80.75 33.25T841 862q0 47.5-33.25 80.75T727 976Z" class="color000 svgShape color2527b4"></path></svg></svg></g></svg>